PathFileType	4	(X/Y/Z)	RBDS015static.trc
DataRate	CameraRate	NumFrames	NumMarkers	Units	OrigDataRate	OrigDataStartFrame	OrigNumFrames
150.000000	150.000000	4	48	mm	150.000000	0	150
Frame#	Time	L.Ankle			L.Ankle.Medial			L.ASIS			L.GTR			L.Heel.Bottom			L.Heel.Lateral			L.Heel.Top			L.HF			L.Iliac.Crest			L.Knee			L.Knee.Medial			L.MT1			L.MT2			L.MT5			L.PSIS			L.Shank.Bottom.Lateral			L.Shank.Bottom.Medial			L.Shank.Top.Lateral			L.Shank.Top.Medial			L.Thigh.Bottom.Lateral			L.Thigh.Bottom.Medial			L.Thigh.Top.Lateral			L.Thigh.Top.Medial			L.TT			R.Ankle			R.Ankle.Medial			R.ASIS			R.GTR			R.Heel.Bottom			R.Heel.Lateral			R.Heel.Top			R.HF			R.Iliac.Crest			R.Knee			R.Knee.Medial			R.MT1			R.MT2			R.MT5			R.PSIS			R.Shank.Bottom.Lateral			R.Shank.Bottom.Medial			R.Shank.Top.Lateral			R.Shank.Top.Medial			R.Thigh.Bottom.Lateral			R.Thigh.Bottom.Medial			R.Thigh.Top.Lateral			R.Thigh.Top.Medial			R.TT			
		X1	Y1	Z1	X2	Y2	Z2	X3	Y3	Z3	X4	Y4	Z4	X5	Y5	Z5	X6	Y6	Z6	X7	Y7	Z7	X8	Y8	Z8	X9	Y9	Z9	X10	Y10	Z10	X11	Y11	Z11	X12	Y12	Z12	X13	Y13	Z13	X14	Y14	Z14	X15	Y15	Z15	X16	Y16	Z16	X17	Y17	Z17	X18	Y18	Z18	X19	Y19	Z19	X20	Y20	Z20	X21	Y21	Z21	X22	Y22	Z22	X23	Y23	Z23	X24	Y24	Z24	X25	Y25	Z25	X26	Y26	Z26	X27	Y27	Z27	X28	Y28	Z28	X29	Y29	Z29	X30	Y30	Z30	X31	Y31	Z31	X32	Y32	Z32	X33	Y33	Z33	X34	Y34	Z34	X35	Y35	Z35	X36	Y36	Z36	X37	Y37	Z37	X38	Y38	Z38	X39	Y39	Z39	X40	Y40	Z40	X41	Y41	Z41	X42	Y42	Z42	X43	Y43	Z43	X44	Y44	Z44	X45	Y45	Z45	X46	Y46	Z46	X47	Y47	Z47	X48	Y48	Z48	

1	0	699.7607421875	107.5836486816406	1032.781005859375	714.6218872070313	118.1996841430664	1120.966674804688	811.6129150390625	1081.724365234375	1094.972778320313	725.4596557617188	988.7313232421875	1048.826171875	636.93017578125	39.83046340942383	1081.4384765625	661.143310546875	58.20427322387695	1040.4248046875	642.7426147460938	82.25987243652344	1082.32080078125	695.4390869140625	511.3978271484375	1055.096801757813	731.4520874023438	1158.609252929688	1061.800415039063	695.632080078125	571.15576171875	1061.23828125	700.4332885742188	556.0752563476563	1190.033081054688	843.8218383789063	61.17037582397461	1125.699829101563	853.046630859375	70.86629486083984	1079.599731445313	817.36474609375	48.66728973388672	1013.21240234375	636.1622924804688	1121.7626953125	1177.791748046875	692.4752807617188	210.5138549804688	1033.450439453125	648.7026977539063	204.7788238525391	1060.2587890625	683.0886840820313	290.9644775390625	1028.318969726563	637.9861450195313	288.6185302734375	1056.791015625	713.5140991210938	704.4637451171875	1040.737915039063	653.0653686523438	703.3716430664063	1072.503662109375	708.6178588867188	814.8349609375	1035.35498046875	646.877197265625	813.423095703125	1074.132446289063	752.9161987304688	476.6954345703125	1102.839477539063	692.2120971679688	114.7811279296875	1412.879638671875	716.6172485351563	117.7067031860352	1326.825561523438	830.9405517578125	1075.369018554688	1323.112915039063	751.8121337890625	989.56201171875	1381.227905273438	632.9720458984375	40.99445724487305	1370.249633789063	660.6350708007813	61.65962219238281	1411.381958007813	641.4098510742188	87.62626647949219	1370.407592773438	714.3228149414063	511.3370666503906	1376.078979492188	750.1067504882813	1158.209350585938	1368.317626953125	715.721435546875	576.8230590820313	1368.997436523438	731.1381225585938	550.826904296875	1242.649780273438	843.0122680664063	59.70748519897461	1326.592529296875	851.1140747070313	72.977783203125	1375.51220703125	808.2474365234375	50.09169769287109	1441.304443359375	643.326904296875	1121.059692382813	1269.629028320313	701.004638671875	208.8135833740234	1408.971435546875	653.0034790039063	205.6671600341797	1381.127075195313	693.47265625	290.0264587402344	1410.218505859375	647.6834716796875	286.0367736816406	1382.029052734375	728.1073608398438	725.5191650390625	1387.834716796875	665.3798217773438	721.7149047851563	1349.127685546875	715.5635375976563	834.7832641601563	1390.679321289063	657.6887817382813	831.3883666992188	1351.37451171875	775.645263671875	486.7423400878906	1330.628662109375	
2	0.006666666666666667	699.7570190429688	107.5906295776367	1032.766479492188	714.6253051757813	118.2082672119141	1120.963500976563	811.6583251953125	1081.720581054688	1094.967529296875	725.5106811523438	988.737548828125	1048.82470703125	636.92626953125	39.83923721313477	1081.438354492188	661.1619873046875	58.20525360107422	1040.420654296875	642.7489624023438	82.25847625732422	1082.326782226563	695.4617309570313	511.3979187011719	1055.099487304688	731.4999389648438	1158.609985351563	1061.798706054688	695.6574096679688	571.1591796875	1061.237060546875	700.4474487304688	556.0650024414063	1190.031372070313	843.8124389648438	61.17473220825195	1125.698974609375	853.0538940429688	70.8675537109375	1079.593994140625	817.3670654296875	48.66802978515625	1013.2080078125	636.2206420898438	1121.770874023438	1177.80712890625	692.4735717773438	210.5215759277344	1033.449462890625	648.6986083984375	204.7836151123047	1060.260375976563	683.1019287109375	290.9707336425781	1028.319946289063	637.9893188476563	288.6253356933594	1056.790893554688	713.54296875	704.4662475585938	1040.753173828125	653.0883178710938	703.3824462890625	1072.5068359375	708.6434936523438	814.8403930664063	1035.365234375	646.915283203125	813.432861328125	1074.134765625	752.9271240234375	476.6984558105469	1102.837768554688	692.2166748046875	114.7831649780273	1412.88330078125	716.6206665039063	117.6993789672852	1326.823486328125	830.9908447265625	1075.3681640625	1323.107788085938	751.8709716796875	989.5524291992188	1381.2333984375	632.9751586914063	40.9856071472168	1370.249267578125	660.63427734375	61.66532135009766	1411.380126953125	641.4207153320313	87.62894439697266	1370.40185546875	714.3701782226563	511.3305358886719	1376.078369140625	750.1598510742188	1158.203002929688	1368.322509765625	715.8084106445313	576.7164916992188	1368.723266601563	731.1937255859375	550.8246459960938	1242.653564453125	843.0185546875	59.7001953125	1326.58251953125	851.1190185546875	72.98081207275391	1375.507690429688	808.2439575195313	50.08435440063477	1441.306640625	643.3842163085938	1121.071411132813	1269.6455078125	701.033935546875	208.8153076171875	1408.970336914063	653.0198974609375	205.6745910644531	1381.134643554688	693.5086669921875	290.0220947265625	1410.21630859375	647.7174682617188	286.0530090332031	1382.042114257813	728.183837890625	725.5133666992188	1387.833374023438	665.4425659179688	721.7107543945313	1349.144409179688	715.6246948242188	834.7861938476563	1390.677978515625	657.7665405273438	831.3858642578125	1351.367065429688	775.6968383789063	486.7326354980469	1330.637573242188	
3	0.01333333333333333	699.7633056640625	107.5952911376953	1032.7646484375	714.6311645507813	118.2075347900391	1120.965209960938	811.7073974609375	1081.716674804688	1094.977172851563	725.5440673828125	988.7445068359375	1048.843139648438	636.9349365234375	39.84012222290039	1081.428833007813	661.1563110351563	58.21648406982422	1040.414672851563	642.7415161132813	82.26222991943359	1082.331787109375	695.4584350585938	511.4085998535156	1055.105712890625	731.5429077148438	1158.607666015625	1061.807495117188	695.6719360351563	571.1535034179688	1061.245971679688	700.4728393554688	556.0733642578125	1190.043090820313	843.8118286132813	61.16881561279297	1125.699096679688	853.04833984375	70.8612060546875	1079.600952148438	817.3724365234375	48.66251754760742	1013.212280273438	636.2646484375	1121.76708984375	1177.810424804688	692.4720458984375	210.5252838134766	1033.445678710938	648.7025756835938	204.7915344238281	1060.26611328125	683.092041015625	290.9740905761719	1028.318115234375	637.9937133789063	288.6317138671875	1056.799682617188	713.559814453125	704.4566650390625	1040.761352539063	653.10791015625	703.3807373046875	1072.519287109375	708.6774291992188	814.845458984375	1035.373291015625	646.9439697265625	813.4267578125	1074.138549804688	752.9369506835938	476.698974609375	1102.843627929688	692.229248046875	114.7832183837891	1412.884887695313	716.6195678710938	117.7056884765625	1326.821411132813	831.046142578125	1075.36572265625	1323.12353515625	751.9288330078125	989.556396484375	1381.236694335938	632.973876953125	41.00048446655273	1370.249145507813	660.64013671875	61.66750717163086	1411.383911132813	641.4134521484375	87.63829040527344	1370.397705078125	714.4368896484375	511.3333129882813	1376.091552734375	750.212890625	1158.1875	1368.329833984375	715.8766479492188	576.7264404296875	1368.730712890625	731.2413330078125	550.822265625	1242.666381835938	843.0264892578125	59.70198440551758	1326.590576171875	851.1236572265625	72.98104858398438	1375.515991210938	808.2486572265625	50.09438323974609	1441.311767578125	643.4376220703125	1121.066772460938	1269.6484375	701.0471801757813	208.8162231445313	1408.973022460938	653.0372924804688	205.6953125	1381.133666992188	693.5520629882813	290.02392578125	1410.233764648438	647.7540893554688	286.0628051757813	1382.053466796875	728.254638671875	725.52392578125	1387.841918945313	665.50439453125	721.720947265625	1349.157104492188	715.6989135742188	834.7877807617188	1390.689697265625	657.8547973632813	831.3893432617188	1351.392822265625	775.7476196289063	486.7201232910156	1330.632934570313	
4	0.02	699.7568969726563	107.58740234375	1032.767700195313	714.6385498046875	118.2107849121094	1120.966430664063	811.7457275390625	1081.708129882813	1094.977172851563	725.5756225585938	988.7377319335938	1048.838500976563	636.9326782226563	39.83727645874023	1081.4345703125	661.1556396484375	58.21345901489258	1040.425170898438	642.7413330078125	82.27300262451172	1082.324829101563	695.4673461914063	511.405517578125	1055.1142578125	731.5968627929688	1158.590454101563	1061.819091796875	695.6888427734375	571.1605224609375	1061.267456054688	700.508544921875	556.0785522460938	1190.0595703125	843.8195190429688	61.16933441162109	1125.694580078125	853.0538940429688	70.85672760009766	1079.597045898438	817.3751831054688	48.6583251953125	1013.2109375	636.32275390625	1121.767578125	1177.824584960938	692.4715576171875	210.5276031494141	1033.449584960938	648.7039184570313	204.7971038818359	1060.276245117188	683.0864868164063	290.9781494140625	1028.326049804688	637.9906616210938	288.632080078125	1056.81787109375	713.5841064453125	704.4696044921875	1040.764404296875	653.1359252929688	703.38623046875	1072.532470703125	708.7030029296875	814.8352661132813	1035.384765625	646.9735107421875	813.4453735351563	1074.157958984375	752.9483642578125	476.6986694335938	1102.843139648438	692.2344970703125	114.7829132080078	1412.868286132813	716.6326904296875	117.7095794677734	1326.820678710938	831.1026000976563	1075.365844726563	1323.121826171875	751.975830078125	989.5575561523438	1381.24072265625	632.9806518554688	41.00830841064453	1370.250366210938	660.636962890625	61.66900634765625	1411.379760742188	641.4295654296875	87.63843536376953	1370.39794921875	714.505615234375	511.3249816894531	1376.099487304688	750.2572631835938	1158.187866210938	1368.340942382813	715.9241333007813	576.8297729492188	1369.0224609375	731.293701171875	550.8234252929688	1242.669799804688	843.0318603515625	59.70603561401367	1326.5888671875	851.1238403320313	72.97586059570313	1375.519165039063	808.246337890625	50.08764266967773	1441.315673828125	643.476318359375	1121.071533203125	1269.658081054688	701.080078125	208.8223571777344	1408.972290039063	653.0579223632813	205.7000885009766	1381.137451171875	693.5839233398438	290.0352478027344	1410.24267578125	647.7870483398438	286.0719604492188	1382.059204101563	728.3313598632813	725.5219116210938	1387.856811523438	665.567138671875	721.7239990234375	1349.169677734375	715.7723388671875	834.7862548828125	1390.69580078125	657.9224243164063	831.3955078125	1351.412719726563	775.80712890625	486.7066650390625	1330.635131835938	
